<svg id="Search" xmlns="http://www.w3.org/2000/svg" width="46.364" height="40.071" viewBox="0 0 46.364 40.071">
  <rect id="bound" width="36" height="37" transform="translate(10.364 1.885)" fill="none"/>
  <path id="Path_2" data-name="Path 2" d="M.69,4.024A2.357,2.357,0,0,1,4.024.69l9.429,9.429a2.357,2.357,0,1,1-3.334,3.334Z" transform="translate(23.571 25.928)" opacity="0.3"/>
  <path id="Path" d="M16.5,33A16.5,16.5,0,1,1,33,16.5,16.518,16.518,0,0,1,16.5,33Zm0-28.285A11.786,11.786,0,1,0,28.285,16.5,11.8,11.8,0,0,0,16.5,4.714Z" transform="translate(0 0)"/>
</svg>
